<svg width="51" height="36" viewBox="0 0 51 36" fill="none" xmlns="http://www.w3.org/2000/svg">
<g clip-path="url(#clip0_513_8)">
<mask id="path-1-outside-1_513_8" maskUnits="userSpaceOnUse" x="0.899902" y="4.72803" width="38" height="28" fill="black">
<rect fill="white" x="0.899902" y="4.72803" width="38" height="28"/>
<path fill-rule="evenodd" clip-rule="evenodd" d="M30.9304 8.00003L27.7119 24.124L23.3919 5.72803H16.6239L12.1239 24.124L8.4879 5.72803H1.8999L8.3079 31H15.7599L19.9359 14.368L23.9679 31H31.4199L37.4156 8.00003H30.9304Z"/>
</mask>
<path fill-rule="evenodd" clip-rule="evenodd" d="M30.9304 8.00003L27.7119 24.124L23.3919 5.72803H16.6239L12.1239 24.124L8.4879 5.72803H1.8999L8.3079 31H15.7599L19.9359 14.368L23.9679 31H31.4199L37.4156 8.00003H30.9304Z" fill="#6C5DD3"/>
<path d="M27.7119 24.124L26.7384 24.3526C26.846 24.8107 27.2583 25.1318 27.7287 25.1239C28.1992 25.116 28.6005 24.7812 28.6926 24.3198L27.7119 24.124ZM30.9304 8.00003V7.00003C30.4536 7.00003 30.0431 7.33668 29.9497 7.80428L30.9304 8.00003ZM23.3919 5.72803L24.3654 5.49941C24.2593 5.04749 23.8561 4.72803 23.3919 4.72803V5.72803ZM16.6239 5.72803V4.72803C16.1631 4.72803 15.762 5.04285 15.6525 5.49041L16.6239 5.72803ZM12.1239 24.124L11.1429 24.3179C11.2338 24.7782 11.6325 25.1133 12.1015 25.1238C12.5705 25.1343 12.9838 24.8173 13.0953 24.3616L12.1239 24.124ZM8.4879 5.72803L9.46892 5.53413C9.37633 5.06566 8.96543 4.72803 8.4879 4.72803V5.72803ZM1.8999 5.72803V4.72803C1.59138 4.72803 1.30013 4.87044 1.11067 5.11394C0.921206 5.35743 0.854748 5.67475 0.930578 5.97381L1.8999 5.72803ZM8.3079 31L7.33858 31.2458C7.45105 31.6894 7.85028 32 8.3079 32V31ZM15.7599 31V32C16.2184 32 16.6181 31.6882 16.7298 31.2436L15.7599 31ZM19.9359 14.368L20.9078 14.1324C20.7994 13.6854 20.4 13.3699 19.94 13.368C19.48 13.3662 19.078 13.6783 18.966 14.1245L19.9359 14.368ZM23.9679 31L22.9961 31.2356C23.1048 31.6842 23.5064 32 23.9679 32V31ZM31.4199 31V32C31.875 32 32.2728 31.6927 32.3876 31.2523L31.4199 31ZM37.4156 8.00003L38.3833 8.25228C38.4614 7.9526 38.3963 7.63363 38.2069 7.38858C38.0175 7.14352 37.7253 7.00003 37.4156 7.00003V8.00003ZM28.6926 24.3198L31.911 8.19578L29.9497 7.80428L26.7313 23.9283L28.6926 24.3198ZM22.4184 5.95664L26.7384 24.3526L28.6854 23.8954L24.3654 5.49941L22.4184 5.95664ZM16.6239 6.72803H23.3919V4.72803H16.6239V6.72803ZM13.0953 24.3616L17.5953 5.96564L15.6525 5.49041L11.1525 23.8864L13.0953 24.3616ZM7.50688 5.92193L11.1429 24.3179L13.1049 23.9301L9.46892 5.53413L7.50688 5.92193ZM1.8999 6.72803H8.4879V4.72803H1.8999V6.72803ZM9.27723 30.7542L2.86923 5.48224L0.930578 5.97381L7.33858 31.2458L9.27723 30.7542ZM15.7599 30H8.3079V32H15.7599V30ZM18.966 14.1245L14.79 30.7565L16.7298 31.2436L20.9058 14.6116L18.966 14.1245ZM24.9398 30.7644L20.9078 14.1324L18.9641 14.6036L22.9961 31.2356L24.9398 30.7644ZM31.4199 30H23.9679V32H31.4199V30ZM36.448 7.74778L30.4522 30.7478L32.3876 31.2523L38.3833 8.25228L36.448 7.74778ZM37.4156 7.00003H30.9304V9.00003H37.4156V7.00003Z" fill="#6C5DD3" mask="url(#path-1-outside-1_513_8)"/>
<path d="M36.184 31.252C33.808 31.252 31.624 30.7 29.632 29.596C27.664 28.492 26.092 26.956 24.916 24.988C23.764 22.996 23.188 20.764 23.188 18.292C23.188 15.82 23.764 13.6 24.916 11.632C26.092 9.664 27.664 8.128 29.632 7.024C31.624 5.92 33.808 5.368 36.184 5.368C38.56 5.368 40.732 5.92 42.7 7.024C44.692 8.128 46.252 9.664 47.38 11.632C48.532 13.6 49.108 15.82 49.108 18.292C49.108 20.764 48.532 22.996 47.38 24.988C46.228 26.956 44.668 28.492 42.7 29.596C40.732 30.7 38.56 31.252 36.184 31.252ZM36.184 25.636C38.2 25.636 39.808 24.964 41.008 23.62C42.232 22.276 42.844 20.5 42.844 18.292C42.844 16.06 42.232 14.284 41.008 12.964C39.808 11.62 38.2 10.948 36.184 10.948C34.144 10.948 32.512 11.608 31.288 12.928C30.088 14.248 29.488 16.036 29.488 18.292C29.488 20.524 30.088 22.312 31.288 23.656C32.512 24.976 34.144 25.636 36.184 25.636Z" fill="#B9ECEE"/>
<path d="M29.632 29.596L29.2406 30.2937L29.2442 30.2957L29.632 29.596ZM24.916 24.988L24.2234 25.3885L24.2293 25.3984L24.916 24.988ZM24.916 11.632L24.2292 11.2216L24.2256 11.2279L24.916 11.632ZM29.632 7.024L29.2442 6.32427L29.2406 6.32629L29.632 7.024ZM42.7 7.024L42.3086 7.72172L42.3122 7.72372L42.7 7.024ZM47.38 11.632L46.6859 12.0298L46.6896 12.0361L47.38 11.632ZM47.38 24.988L48.0704 25.3921L48.0725 25.3885L47.38 24.988ZM42.7 29.596L43.0914 30.2937L43.0914 30.2937L42.7 29.596ZM41.008 23.62L40.4165 23.0813L40.4112 23.0872L41.008 23.62ZM41.008 12.964L40.4112 13.4968L40.4163 13.5024L40.4214 13.508L41.008 12.964ZM31.288 12.928L30.7014 12.384L30.696 12.3899L31.288 12.928ZM31.288 23.656L30.6913 24.1888L30.6963 24.1944L30.7014 24.2L31.288 23.656ZM36.184 30.452C33.9376 30.452 31.8879 29.9316 30.0198 28.8963L29.2442 30.2957C31.3601 31.4684 33.6784 32.052 36.184 32.052V30.452ZM30.0234 28.8983C28.1793 27.8638 26.7083 26.4277 25.6027 24.5776L24.2293 25.3984C25.4757 27.4843 27.1487 29.1202 29.2406 30.2937L30.0234 28.8983ZM25.6085 24.5875C24.5321 22.7263 23.988 20.6342 23.988 18.292H22.388C22.388 20.8938 22.9959 23.2657 24.2235 25.3885L25.6085 24.5875ZM23.988 18.292C23.988 15.9497 24.5322 13.8713 25.6064 12.0361L24.2256 11.2279C22.9958 13.3287 22.388 15.6903 22.388 18.292H23.988ZM25.6027 12.0424C26.7083 10.1923 28.1793 8.75622 30.0234 7.72171L29.2406 6.32629C27.1487 7.49978 25.4757 9.13572 24.2293 11.2216L25.6027 12.0424ZM30.0198 7.72372C31.8879 6.68839 33.9376 6.168 36.184 6.168V4.568C33.6784 4.568 31.3601 5.15161 29.2442 6.32428L30.0198 7.72372ZM36.184 6.168C38.4305 6.168 40.4665 6.68837 42.3086 7.72171L43.0914 6.32629C40.9975 5.15163 38.6895 4.568 36.184 4.568V6.168ZM42.3122 7.72372C44.177 8.75723 45.6309 10.1891 46.6859 12.0298L48.0741 11.2342C46.8731 9.13894 45.207 7.49877 43.0878 6.32428L42.3122 7.72372ZM46.6896 12.0361C47.7638 13.8713 48.308 15.9497 48.308 18.292H49.908C49.908 15.6903 49.3002 13.3287 48.0704 11.2279L46.6896 12.0361ZM48.308 18.292C48.308 20.6342 47.7639 22.7263 46.6875 24.5875L48.0725 25.3885C49.3001 23.2657 49.908 20.8938 49.908 18.292H48.308ZM46.6896 24.5839C45.6086 26.4305 44.1512 27.8646 42.3086 28.8983L43.0914 30.2937C45.1848 29.1194 46.8474 27.4815 48.0704 25.3921L46.6896 24.5839ZM42.3086 28.8983C40.4665 29.9316 38.4305 30.452 36.184 30.452V32.052C38.6895 32.052 40.9975 31.4684 43.0914 30.2937L42.3086 28.8983ZM36.184 26.436C38.3977 26.436 40.234 25.6881 41.6048 24.1528L40.4112 23.0872C39.382 24.2399 38.0023 24.836 36.184 24.836V26.436ZM41.5995 24.1587C42.9851 22.6372 43.644 20.6543 43.644 18.292H42.044C42.044 20.3457 41.4789 21.9148 40.4165 23.0813L41.5995 24.1587ZM43.644 18.292C43.644 15.9089 42.9867 13.9214 41.5946 12.42L40.4214 13.508C41.4773 14.6466 42.044 16.2111 42.044 18.292H43.644ZM41.6048 12.4312C40.234 10.8959 38.3977 10.148 36.184 10.148V11.748C38.0023 11.748 39.382 12.3441 40.4112 13.4968L41.6048 12.4312ZM36.184 10.148C33.9541 10.148 32.0977 10.8783 30.7014 12.384L31.8746 13.472C32.9263 12.3377 34.3339 11.748 36.184 11.748V10.148ZM30.696 12.3899C29.3295 13.8931 28.688 15.8916 28.688 18.292H30.288C30.288 16.1804 30.8465 14.6029 31.88 13.4661L30.696 12.3899ZM28.688 18.292C28.688 20.6717 29.3311 22.6654 30.6913 24.1888L31.8848 23.1232C30.8449 21.9586 30.288 20.3763 30.288 18.292H28.688ZM30.7014 24.2C32.0977 25.7057 33.9541 26.436 36.184 26.436V24.836C34.3339 24.836 32.9263 24.2463 31.8746 23.112L30.7014 24.2Z" fill="#B9ECEE"/>
</g>
<defs>
<clipPath id="clip0_513_8">
<rect width="51" height="36" fill="white"/>
</clipPath>
</defs>
</svg>
